<svg width="140" height="140" viewBox="0 0 140 140" fill="none" xmlns="http://www.w3.org/2000/svg">
<path d="M25.75 122C25.75 122 17 122 17 113.25C17 104.5 25.75 78.25 69.5 78.25C113.25 78.25 122 104.5 122 113.25C122 122 113.25 122 113.25 122H25.75ZM69.5 69.5C76.4619 69.5 83.1387 66.7344 88.0616 61.8116C92.9844 56.8887 95.75 50.2119 95.75 43.25C95.75 36.2881 92.9844 29.6113 88.0616 24.6884C83.1387 19.7656 76.4619 17 69.5 17C62.5381 17 55.8613 19.7656 50.9384 24.6884C46.0156 29.6113 43.25 36.2881 43.25 43.25C43.25 50.2119 46.0156 56.8887 50.9384 61.8116C55.8613 66.7344 62.5381 69.5 69.5 69.5Z" fill="white"/>
</svg>
